<?xml version="1.0" standalone="no"?>
<!DOCTYPE svg PUBLIC "-//W3C//DTD SVG 20010904//EN"
 "http://www.w3.org/TR/2001/REC-SVG-20010904/DTD/svg10.dtd">
<svg version="1.0" xmlns="http://www.w3.org/2000/svg"
 width="480.000000pt" height="480.000000pt" viewBox="0 0 480.000000 480.000000"
 preserveAspectRatio="xMidYMid meet">
<metadata>
Created by potrace 1.11, written by Peter Selinger 2001-2013
</metadata>
<g transform="translate(0.000000,480.000000) scale(0.100000,-0.100000)"
fill="#000000" stroke="none">
<path d="M1392 4210 c-123 -32 -225 -93 -322 -190 -92 -92 -135 -157 -175
-262 l-25 -68 159 0 158 0 36 54 c43 65 104 117 183 153 l59 28 950 0 950 0
65 -31 c120 -58 203 -156 235 -279 23 -89 23 -1801 0 -1890 -32 -123 -115
-221 -235 -279 l-65 -31 -535 -3 -535 -3 -212 -212 -213 -212 0 212 0 212
-202 3 c-198 3 -205 4 -262 31 -78 36 -134 83 -181 151 l-38 56 -159 0 -158 0
25 -67 c40 -106 83 -171 175 -263 64 -64 105 -96 167 -128 92 -48 211 -82 285
-82 l48 0 0 -422 0 -423 423 423 423 422 464 0 c531 0 549 2 697 76 152 75
285 217 348 371 55 136 55 137 55 1113 0 987 0 978 -60 1122 -83 199 -276 364
-486 418 -74 19 -114 20 -1023 19 -897 0 -950 -1 -1019 -19z"/>
<path d="M2610 3691 c-57 -18 -108 -52 -154 -100 l-48 -52 63 -50 62 -49 53
50 c52 49 68 55 134 50 63 -5 98 -66 78 -137 -13 -48 -64 -99 -243 -246 l-150
-123 -3 -72 -3 -72 296 0 295 0 0 75 0 75 -172 2 -171 3 84 65 c198 152 250
224 250 345 0 102 -41 173 -126 218 -30 16 -62 21 -130 24 -49 1 -101 -1 -115
-6z"/>
<path d="M850 2671 l0 -861 150 0 150 0 0 300 0 300 193 0 192 -1 210 -299
210 -300 179 0 c141 0 176 3 169 13 -73 95 -444 628 -443 634 2 4 29 18 62 30
251 95 382 348 323 626 -32 151 -127 273 -268 342 -142 69 -141 69 -659 73
l-468 3 0 -860z m914 560 c121 -43 176 -114 184 -236 9 -137 -53 -237 -176
-287 -54 -22 -72 -23 -339 -26 l-283 -3 0 292 0 291 278 -4 c250 -5 283 -8
336 -27z"/>
</g>
</svg>
