<?xml version="1.0" standalone="no"?>
<!DOCTYPE svg PUBLIC "-//W3C//DTD SVG 20010904//EN"
 "http://www.w3.org/TR/2001/REC-SVG-20010904/DTD/svg10.dtd">
<svg version="1.0" xmlns="http://www.w3.org/2000/svg"
 width="1801.000000pt" height="1801.000000pt" viewBox="0 0 1801.000000 1801.000000"
 preserveAspectRatio="xMidYMid meet">
<metadata>
Created by potrace 1.11, written by Peter Selinger 2001-2013
</metadata>
<g transform="translate(0.000000,1801.000000) scale(0.100000,-0.100000)"
fill="#000000" stroke="none">
<path d="M1470 13525 c-206 -42 -349 -151 -434 -328 -54 -112 -73 -187 -86
-337 -7 -77 -10 -1108 -8 -3110 3 -2838 4 -2998 21 -3055 66 -223 190 -348
404 -407 75 -21 103 -22 675 -27 l597 -6 29 -28 c17 -16 34 -46 40 -67 6 -23
8 -242 5 -561 -6 -653 5 -959 36 -1041 29 -75 97 -150 169 -185 46 -23 69 -27
128 -27 61 1 83 6 150 38 170 81 158 69 1104 1009 498 495 917 917 933 940 51
75 28 160 -54 202 -41 22 -108 19 -148 -6 -19 -11 -273 -260 -566 -552 -292
-293 -691 -687 -888 -877 -288 -279 -368 -351 -419 -377 -35 -18 -68 -33 -74
-33 -6 0 -19 28 -30 63 -18 58 -19 111 -24 899 -5 829 -5 837 -26 865 -38 50
-51 52 -579 53 -601 2 -977 13 -1025 30 -60 22 -92 51 -119 109 l-26 56 0
3065 c0 2911 1 3068 18 3135 43 168 125 232 325 255 57 6 2637 10 7585 10
6584 0 7501 2 7526 15 49 25 111 103 111 140 0 41 -59 111 -114 136 -40 18
-278 19 -7606 18 -6248 -1 -7576 -3 -7630 -14z"/>
<path d="M14425 12366 c-103 -33 -188 -104 -226 -192 -28 -62 -49 -167 -49
-246 l0 -68 -75 0 -75 0 0 -75 0 -75 75 0 75 0 0 -460 0 -460 95 0 95 0 0 460
0 460 130 0 130 0 0 75 0 75 -131 0 -132 0 6 90 c9 116 38 192 90 234 36 29
45 31 115 31 43 0 88 -4 102 -8 25 -8 26 -7 38 63 7 39 10 75 7 80 -17 27
-200 38 -270 16z"/>
<path d="M5090 11628 c0 -403 -3 -757 -6 -785 l-7 -53 87 0 86 0 1 48 c0 46
15 149 18 125 0 -6 26 -38 56 -71 72 -78 147 -112 260 -120 145 -9 267 37 367
139 102 104 148 236 148 426 0 137 -12 196 -57 292 -76 161 -218 251 -393 251
-134 -1 -234 -43 -316 -134 l-54 -59 0 336 0 337 -95 0 -95 0 0 -732z m610 75
c223 -80 285 -494 101 -686 -141 -150 -396 -107 -488 81 -27 55 -28 62 -28
217 0 152 1 163 26 216 76 162 228 229 389 172z"/>
<path d="M6350 11575 l0 -785 95 0 95 0 0 785 0 785 -95 0 -95 0 0 -785z"/>
<path d="M11228 12264 c-77 -41 -75 -169 2 -209 83 -43 180 10 180 98 0 99
-96 158 -182 111z"/>
<path d="M13063 12142 l-93 -25 0 -128 0 -129 -85 0 -85 0 0 -75 0 -75 85 0
85 0 0 -328 c0 -338 7 -417 40 -483 42 -82 136 -129 254 -129 69 1 143 13 156
26 5 5 6 39 3 75 l-6 67 -76 -5 c-64 -4 -81 -1 -108 16 -66 42 -68 49 -71 424
l-3 337 140 0 141 0 0 75 0 75 -140 0 -139 0 -3 153 -3 154 -92 -25z"/>
<path d="M8400 11870 c-127 -27 -254 -130 -315 -255 -50 -101 -65 -172 -65
-303 0 -180 37 -287 133 -390 59 -62 108 -93 193 -123 110 -38 325 -36 467 6
84 25 83 24 68 97 -7 35 -15 65 -17 67 -2 2 -39 -7 -81 -20 -106 -32 -282 -34
-362 -4 -105 39 -185 135 -210 253 -21 102 -63 92 363 92 l374 0 6 23 c18 68
-9 237 -53 329 -45 94 -99 151 -187 194 -68 34 -82 37 -172 40 -53 2 -117 -1
-142 -6z m204 -151 c72 -26 120 -81 146 -167 11 -35 20 -77 20 -93 l0 -29
-285 0 -285 0 6 28 c53 222 216 330 398 261z"/>
<path d="M9633 11865 c-29 -8 -70 -23 -90 -34 -49 -24 -124 -91 -142 -125 -8
-14 -18 -26 -23 -26 -4 0 -8 41 -8 90 l0 90 -91 0 -92 0 6 -67 c4 -38 7 -377
7 -755 l0 -688 95 0 95 0 0 292 0 291 47 -47 c202 -205 575 -130 712 144 47
96 64 189 59 338 -5 143 -24 216 -82 306 -108 168 -300 243 -493 191z m177
-162 c156 -56 246 -285 195 -501 -21 -89 -56 -152 -114 -204 -147 -132 -392
-77 -472 106 -28 63 -39 266 -19 355 30 139 125 236 253 260 51 9 98 5 157
-16z"/>
<path d="M10860 11871 c-86 -27 -160 -91 -203 -176 l-25 -50 -7 108 -7 107
-86 0 -85 0 7 -52 c3 -29 6 -270 6 -535 l0 -483 95 0 95 0 0 298 c0 325 9 399
55 477 51 87 159 145 246 131 l39 -6 0 95 0 95 -52 -1 c-29 0 -64 -4 -78 -8z"/>
<path d="M12137 11870 c-82 -21 -190 -93 -224 -150 -9 -17 -21 -30 -25 -30 -4
0 -8 37 -10 83 l-3 82 -89 3 -89 3 7 -47 c3 -26 6 -267 6 -535 l0 -489 94 0
94 0 4 353 3 352 28 57 c54 110 169 179 276 164 68 -9 132 -45 163 -91 52 -76
58 -127 58 -497 l0 -338 95 0 95 0 0 373 c0 303 -3 384 -15 432 -47 177 -165
274 -344 281 -47 2 -103 -1 -124 -6z"/>
<path d="M15063 11865 c-183 -40 -320 -174 -379 -371 -25 -82 -25 -266 0 -348
71 -237 255 -377 495 -376 202 1 393 116 473 286 56 120 72 279 43 419 -62
293 -327 456 -632 390z m229 -151 c63 -21 119 -72 156 -142 118 -222 59 -511
-126 -619 -65 -38 -178 -44 -250 -13 -57 25 -129 95 -161 158 -49 95 -63 235
-36 350 30 125 87 206 177 251 50 25 74 31 128 31 36 0 87 -7 112 -16z"/>
<path d="M16360 11871 c-86 -27 -160 -91 -203 -176 l-25 -50 -7 108 -7 107
-86 0 -85 0 7 -52 c3 -29 6 -270 6 -535 l0 -483 95 0 95 0 0 298 c0 325 9 399
55 477 51 87 159 145 246 131 l39 -6 0 95 0 95 -52 -1 c-29 0 -64 -4 -78 -8z"/>
<path d="M6870 11490 c0 -233 4 -389 11 -422 38 -180 155 -286 328 -296 134
-8 240 35 330 134 l49 54 7 -85 7 -85 86 0 85 0 -6 182 c-4 99 -7 340 -7 535
l0 353 -95 0 -95 0 0 -343 c0 -383 -4 -413 -64 -483 -130 -152 -349 -129 -418
44 -22 55 -23 70 -26 420 l-3 362 -95 0 -94 0 0 -370z"/>
<path d="M11190 11325 l0 -535 95 0 95 0 0 535 0 535 -95 0 -95 0 0 -535z"/>
</g>
</svg>
